<?xml version="1.0" standalone="no"?>
<!DOCTYPE svg PUBLIC "-//W3C//DTD SVG 20010904//EN"
 "http://www.w3.org/TR/2001/REC-SVG-20010904/DTD/svg10.dtd">
<svg version="1.0" xmlns="http://www.w3.org/2000/svg"
 width="1280.000000pt" height="1280.000000pt" viewBox="0 0 1280.000000 1280.000000"
 preserveAspectRatio="xMidYMid meet">
<metadata>
Created by potrace 1.11, written by Peter Selinger 2001-2013
</metadata>
<g transform="translate(0.000000,1280.000000) scale(0.100000,-0.100000)"
fill="#000000" stroke="none">
<path d="M6276 6899 c-25 -9 -46 -15 -46 -13 0 2 -22 -9 -48 -26 -97 -59 -167
-145 -208 -255 -14 -39 -16 -51 -19 -145 -3 -76 0 -107 17 -158 19 -60 19 -64
3 -76 -17 -12 -17 -13 1 -21 10 -4 24 -9 29 -10 6 -2 34 -10 63 -18 l52 -16 1
47 c0 26 2 64 4 85 2 25 -1 37 -10 37 -7 0 -15 -6 -18 -12 -10 -29 -29 53 -30
127 0 144 68 259 190 320 52 27 68 30 148 30 77 -1 97 -5 140 -27 l50 -26 37
41 c42 48 40 54 -30 88 -106 50 -239 62 -326 28z"/>
<path d="M6657 6763 c-5 -4 2 -133 9 -152 3 -10 7 -11 18 -1 12 9 17 7 26 -9
6 -12 8 -21 4 -21 -3 0 -2 -6 4 -13 19 -23 27 -107 18 -177 -16 -118 -105
-231 -216 -274 -95 -38 -225 -23 -300 33 -40 29 -50 27 -89 -16 l-34 -37 29
-23 c25 -21 100 -66 114 -68 3 0 37 -11 75 -23 75 -23 208 -60 239 -67 10 -3
33 -9 51 -15 18 -6 41 -12 51 -15 10 -2 34 -8 52 -14 26 -8 33 -7 29 2 -2 7
-19 51 -37 99 l-32 87 46 46 c128 128 177 350 113 505 -6 14 -11 27 -12 30 -1
3 -7 17 -15 32 -11 23 -10 29 4 44 20 20 19 21 -19 27 -16 3 -51 10 -77 15
-26 5 -49 8 -51 5z"/>
<path d="M6355 6730 c-46 -10 -86 -34 -140 -84 -40 -38 -47 -49 -35 -56 11 -7
26 3 60 40 51 55 99 79 162 81 107 4 190 -79 191 -189 0 -49 -2 -53 -38 -56
-18 -2 -39 7 -67 30 -22 19 -44 34 -49 34 -5 0 -9 9 -9 19 0 11 -8 22 -17 25
-37 10 -268 4 -275 -8 -12 -18 -9 -24 15 -28 25 -3 21 -23 -5 -22 -20 1 -19 2
-22 -45 -3 -53 13 -61 119 -61 102 0 125 -5 125 -26 0 -7 11 -21 25 -30 31
-20 80 -11 100 20 11 16 26 23 50 24 l34 1 -21 -35 c-20 -34 -21 -70 -4 -151
5 -25 -24 -38 -101 -48 -43 -5 -62 5 -83 45 -7 12 -18 16 -41 14 -18 -2 -34
-6 -37 -8 -2 -2 -16 0 -30 5 -24 8 -27 15 -30 66 -2 43 -8 60 -22 70 -11 8
-20 22 -20 31 0 12 -3 13 -12 4 -9 -9 -6 -17 11 -36 17 -18 24 -40 27 -82 3
-32 7 -60 9 -63 3 -2 32 -4 66 -4 55 0 62 -3 80 -29 24 -34 62 -37 151 -12 51
15 58 19 52 37 -3 11 -8 27 -9 36 -2 9 -4 16 -5 16 -1 0 -4 16 -5 35 -2 23 6
50 22 80 32 56 41 190 18 248 -37 86 -138 134 -240 112z"/>
</g>
</svg>
