<?xml version="1.0" standalone="no"?>
<!DOCTYPE svg PUBLIC "-//W3C//DTD SVG 20010904//EN"
 "http://www.w3.org/TR/2001/REC-SVG-20010904/DTD/svg10.dtd">
<svg version="1.0" xmlns="http://www.w3.org/2000/svg"
 width="106.000000pt" height="106.000000pt" viewBox="0 0 106.000000 106.000000"
 preserveAspectRatio="xMidYMid meet">
<metadata>
Created by potrace 1.11, written by Peter Selinger 2001-2013
</metadata>
<g transform="translate(0.000000,106.000000) scale(0.100000,-0.100000)"
fill="#000000" stroke="none">
<path d="M427 1049 c-89 -20 -190 -88 -250 -169 -99 -131 -125 -298 -72 -453
13 -37 12 -43 -2 -59 -13 -15 -14 -18 -1 -23 29 -11 142 -44 144 -42 1 1 4 41
7 89 5 83 4 87 -13 78 -27 -15 -28 -15 -40 44 -58 279 219 510 472 394 l57
-26 37 44 c20 25 35 46 33 48 -22 18 -104 57 -144 69 -55 16 -169 19 -228 6z"/>
<path d="M785 878 c2 -18 3 -60 4 -92 1 -47 4 -57 13 -48 23 23 38 12 53 -42
66 -226 -94 -459 -315 -460 -81 0 -134 15 -191 54 l-44 29 -40 -39 -39 -39 22
-23 c37 -40 123 -76 293 -124 90 -25 200 -56 244 -69 44 -12 81 -22 83 -20 1
1 -14 46 -33 99 l-35 98 39 36 c50 47 107 141 128 212 31 108 20 248 -29 348
-19 40 -19 44 -4 61 16 18 14 19 -51 31 -37 6 -75 14 -84 16 -13 4 -16 -2 -14
-28z"/>
<path d="M468 867 c-53 -14 -168 -105 -168 -133 0 -7 -9 -16 -20 -19 -27 -9
-25 -33 3 -37 28 -4 24 -23 -5 -23 -19 0 -23 -6 -24 -35 -1 -67 4 -70 126 -70
89 0 110 -3 110 -14 0 -21 49 -56 77 -56 14 0 38 13 55 30 16 17 40 30 54 30
28 0 28 0 9 -36 -17 -33 -19 -94 -6 -141 9 -32 8 -33 -27 -43 -20 -5 -53 -12
-74 -15 -37 -6 -39 -5 -76 44 -17 22 -22 23 -64 14 -26 -6 -51 -7 -58 -3 -6 4
-13 30 -15 59 -5 54 -19 91 -35 91 -6 0 -10 8 -10 17 0 13 -3 14 -12 5 -9 -9
-7 -17 11 -36 16 -17 23 -40 27 -82 2 -32 7 -60 10 -63 3 -4 35 -5 70 -5 45 1
64 -2 64 -11 0 -23 36 -45 76 -45 33 0 144 25 144 33 0 1 -6 22 -14 47 -17 59
-13 94 18 157 35 69 39 167 9 234 -41 93 -142 135 -255 106z m145 -31 c69 -30
120 -121 109 -197 -4 -26 -8 -29 -43 -29 -26 0 -42 6 -51 19 -8 11 -26 25 -41
32 -14 6 -24 15 -22 20 3 4 -2 14 -10 23 -12 11 -38 15 -113 15 -121 -1 -115
-2 -100 18 37 47 92 94 121 102 48 14 114 13 150 -3z"/>
</g>
</svg>
