<?xml version="1.0" encoding="utf-8"?>
<!-- Generator: Adobe Illustrator 19.2.1, SVG Export Plug-In . SVG Version: 6.00 Build 0)  -->
<svg version="1.1" id="Layer_1" xmlns="http://www.w3.org/2000/svg" xmlns:xlink="http://www.w3.org/1999/xlink" x="0px" y="0px"
	 viewBox="0 0 1280 720" style="enable-background:new 0 0 1280 720;" xml:space="preserve">
<style type="text/css">
	.st0{fill:#A2238D;}
	.st1{fill:url(#SVGID_1_);}
	.st2{fill:url(#SVGID_2_);}
	.st3{fill:url(#SVGID_3_);}
	.st4{fill:url(#SVGID_4_);}
</style>
<polygon class="st0" points="612.6,366.4 611.6,383.9 595.5,378.8 "/>
<linearGradient id="SVGID_1_" gradientUnits="userSpaceOnUse" x1="594.7601" y1="344.3919" x2="666.8105" y2="344.3919">
	<stop  offset="1.973119e-007" style="stop-color:#9E1F63"/>
	<stop  offset="1" style="stop-color:#652D90"/>
</linearGradient>
<path class="st1" d="M642.5,319.8c6.3,0.4,12.1,2.7,17,6.1l7.4-8.8c-6.7-5.1-14.8-8.3-23.6-8.9c-25-1.8-46.7,17.9-48.3,44
	c-0.6,10,1.7,19.5,6.4,27.5c0.8-0.6,1.9-0.9,3.2-0.4c1.3,0.5,2.6,1,3.9,1.5c-0.2-0.8-0.1-1.7,0.5-2.7c0.8-1.4,1.5-2.9,2-4.5
	c-3.5-6-5.3-13.2-4.8-20.7C607.3,333.3,623.6,318.5,642.5,319.8z"/>
<linearGradient id="SVGID_2_" gradientUnits="userSpaceOnUse" x1="630.4249" y1="401.4833" x2="674.0299" y2="401.4833">
	<stop  offset="1.973119e-007" style="stop-color:#9E1F63"/>
	<stop  offset="1" style="stop-color:#652D90"/>
</linearGradient>
<polyline class="st2" points="630.4,401.6 674,413.6 665,389.4 "/>
<linearGradient id="SVGID_3_" gradientUnits="userSpaceOnUse" x1="609.7411" y1="364.6423" x2="685.5403" y2="364.6423">
	<stop  offset="1.973119e-007" style="stop-color:#9E1F63"/>
	<stop  offset="1" style="stop-color:#652D90"/>
</linearGradient>
<path class="st3" d="M672,326.8c-1.6,2.1-3.4,4.3-5.3,6c5.3,6.8,8.2,15.5,7.6,24.9c-1.3,19.6-17.6,34.5-36.4,33.1
	c-7.7-0.5-14.6-3.7-20-8.5c-0.8,0.8-1.7,1.6-2.6,2.4c-1.8,1.7-3.6,3.8-5.6,5.6c7.3,6.9,16.8,11.3,27.4,12.1
	c25,1.8,46.7-17.9,48.3-44c0.8-11.9-2.8-23-9.2-31.8C674.9,327,673.4,327,672,326.8z"/>
<g id="XMLID_1_">
	<g>
		<linearGradient id="SVGID_4_" gradientUnits="userSpaceOnUse" x1="665.44" y1="332.11" x2="682.07" y2="332.11">
			<stop  offset="0" style="stop-color:#9E1F63"/>
			<stop  offset="0.2578" style="stop-color:#652D90"/>
		</linearGradient>
		<polygon class="st4" points="682.1,326.4 666.5,340.9 665.4,323.3 		"/>
	</g>
	<g>
	</g>
</g>
<path d="M619.2,359.9c-0.5,2.3,0,3.3,1.7,4c0.8,0.3,1.6,1.6,1.8,2.6c0.5,3.2,0.8,6.4,1,9.6c0.1,1.5,0.7,2,1.7,2.3
	c0.9,0.2,1.8,0.2,2.7,0.1c1.4-0.2,2.7-0.6,4.1-0.8c3.6-0.6,4.3-0.3,6,3.4c0.9,2,2.2,2.9,4.1,2.8c1.6-0.1,3.3-0.2,4.9-0.5
	c3-0.6,5.9-1.5,9-2.2c-2.5-7.3-3.9-14.3,1.8-21.2c-2.7,0-4.6-0.1-6.4,0.1c-0.4,0-0.9,0.7-1.2,1.2c-1.7,3.1-4.1,4.7-7.2,4.5
	c-3.2-0.2-5.6-2-6.9-5.5c-0.5-1.3-1.2-1.3-2.1-1.3c-5.8,0-11.6,0-17.4,0c-2.9,0-4.1-1.3-4.2-4.6c0-1.8,0-3.6,0-5.7
	c1.5,0,3,0.1,4.4-0.1c0.6-0.1,1.1-0.8,1.6-1.2c-0.5-0.5-1.1-1.3-1.7-1.4c-1.3-0.2-2.7-0.1-4.2-0.1c0.3-2.4,1.4-3.5,3.3-3.6
	c8,0,15.9,0,23.9,0c2.3,0,3.1,1.2,3.7,5.2c3.1,0.3,5.5,2,7.1,5.2c0.2,0.4,0.7,0.7,1.1,0.7c2.3,0.1,4.6,0,6.8,0
	c3.2-10-2.2-21.1-11.7-23.8c-8.1-2.3-15.4-0.4-21.9,5.5c-1.2,1.1-2.4,2.7-3,4.3c-0.6,1.6-1.3,2-2.6,1.9c-0.9-0.1-1.8,0-3.1,0
	c0.5-0.7,0.7-1.1,1-1.5c5.2-5.9,10.7-11.2,18.2-12.8c6-1.3,11.8-0.7,17.2,2.9c7.2,4.8,9.1,12.4,8.4,21.3c-0.3,4.2-1.2,8.3-3.6,11.7
	c-2.5,3.6-2.7,7.6-1.7,11.8c0.6,2.3,1.3,4.6,2,7.1c-5.7,1.9-11.5,4-17.6,3.2c-1.9-0.3-2.9-2-3.6-3.8c-0.7-2-2-2.6-3.8-2.2
	c-1.5,0.4-3,0.8-4.5,0.8c-1.7,0-3.5-0.4-5.2-0.9c-0.5-0.2-1-1.3-1-2.1c-0.4-2.9-0.6-5.8-0.8-8.8c-0.1-1.8-0.7-3-2.3-3.7
	c-1.7-0.6-2.1-2.2-1.3-4C618.2,360.4,618.8,360.2,619.2,359.9z"/>
</svg>
